solid Visualization Toolkit generated SLA File
 facet normal 0 0.99909896960415923 -0.042441123169719645
  outer loop
   vertex -1.5 0.10000000149011612 0
   vertex 1.5 0.10000000149011612 0
   vertex -1.5 0.099639751017093658 -0.0084805926308035851
  endloop
 endfacet
 facet normal 0 0.99909896960415923 -0.042441123169719645
  outer loop
   vertex 1.5 0.10000000149011612 0
   vertex 1.5 0.099639751017093658 -0.0084805926308035851
   vertex -1.5 0.099639751017093658 -0.0084805926308035851
  endloop
 endfacet
 facet normal 0 0.99190042146737867 -0.12701792744662754
  outer loop
   vertex -1.5 0.099639751017093658 -0.0084805926308035851
   vertex 1.5 0.099639751017093658 -0.0084805926308035851
   vertex -1.5 0.098561592400074005 -0.016900081187486649
  endloop
 endfacet
 facet normal 0 0.99190042146737867 -0.12701792744662754
  outer loop
   vertex 1.5 0.099639751017093658 -0.0084805926308035851
   vertex 1.5 0.098561592400074005 -0.016900081187486649
   vertex -1.5 0.098561592400074005 -0.016900081187486649
  endloop
 endfacet
 facet normal 0 0.97755525479117389 -0.21067919648167235
  outer loop
   vertex -1.5 0.098561592400074005 -0.016900081187486649
   vertex 1.5 0.098561592400074005 -0.016900081187486649
   vertex -1.5 0.096773296594619751 -0.025197805836796761
  endloop
 endfacet
 facet normal 0 0.97755525479117389 -0.21067919648167235
  outer loop
   vertex 1.5 0.098561592400074005 -0.016900081187486649
   vertex 1.5 0.096773296594619751 -0.025197805836796761
   vertex -1.5 0.096773296594619751 -0.025197805836796761
  endloop
 endfacet
 facet normal 0 0.95616670142577109 -0.29282288005646051
  outer loop
   vertex -1.5 0.096773296594619751 -0.025197805836796761
   vertex 1.5 0.096773296594619751 -0.025197805836796761
   vertex -1.5 0.094287745654582977 -0.033313978463411331
  endloop
 endfacet
 facet normal 0 0.95616670142577109 -0.29282288005646051
  outer loop
   vertex 1.5 0.096773296594619751 -0.025197805836796761
   vertex 1.5 0.094287745654582977 -0.033313978463411331
   vertex -1.5 0.094287745654582977 -0.033313978463411331
  endloop
 endfacet
 facet normal 0 0.92788907313027236 -0.37285636371858288
  outer loop
   vertex -1.5 0.094287745654582977 -0.033313978463411331
   vertex 1.5 0.094287745654582977 -0.033313978463411331
   vertex -1.5 0.091122850775718689 -0.041190125048160553
  endloop
 endfacet
 facet normal 0 0.92788907313027236 -0.37285636371858288
  outer loop
   vertex 1.5 0.094287745654582977 -0.033313978463411331
   vertex 1.5 0.091122850775718689 -0.041190125048160553
   vertex -1.5 0.091122850775718689 -0.041190125048160553
  endloop
 endfacet
 facet normal 0 0.89292570181105357 -0.45020405489648524
  outer loop
   vertex -1.5 0.091122850775718689 -0.041190125048160553
   vertex 1.5 0.091122850775718689 -0.041190125048160553
   vertex -1.5 0.087301410734653473 -0.048769492655992508
  endloop
 endfacet
 facet normal 0 0.89292570181105357 -0.45020405489648524
  outer loop
   vertex 1.5 0.091122850775718689 -0.041190125048160553
   vertex 1.5 0.087301410734653473 -0.048769492655992508
   vertex -1.5 0.087301410734653473 -0.048769492655992508
  endloop
 endfacet
 facet normal 0 0.8515291519265209 -0.52430726050599386
  outer loop
   vertex -1.5 0.087301410734653473 -0.048769492655992508
   vertex 1.5 0.087301410734653473 -0.048769492655992508
   vertex -1.5 0.08285096287727356 -0.05599747970700264
  endloop
 endfacet
 facet normal 0 0.8515291519265209 -0.52430726050599386
  outer loop
   vertex 1.5 0.087301410734653473 -0.048769492655992508
   vertex 1.5 0.08285096287727356 -0.05599747970700264
   vertex -1.5 0.08285096287727356 -0.05599747970700264
  endloop
 endfacet
 facet normal 0 0.80399712539766688 -0.59463318302318802
  outer loop
   vertex -1.5 0.08285096287727356 -0.05599747970700264
   vertex 1.5 0.08285096287727356 -0.05599747970700264
   vertex -1.5 0.077803574502468109 -0.062821999192237854
  endloop
 endfacet
 facet normal 0 0.80399712539766688 -0.59463318302318802
  outer loop
   vertex 1.5 0.08285096287727356 -0.05599747970700264
   vertex 1.5 0.077803574502468109 -0.062821999192237854
   vertex -1.5 0.077803574502468109 -0.062821999192237854
  endloop
 endfacet
 facet normal 0 0.75067242172268778 -0.66067459105447301
  outer loop
   vertex -1.5 0.077803574502468109 -0.062821999192237854
   vertex 1.5 0.077803574502468109 -0.062821999192237854
   vertex -1.5 0.072195611894130707 -0.06919388473033905
  endloop
 endfacet
 facet normal 0 0.75067242172268778 -0.66067459105447301
  outer loop
   vertex 1.5 0.077803574502468109 -0.062821999192237854
   vertex 1.5 0.072195611894130707 -0.06919388473033905
   vertex -1.5 0.072195611894130707 -0.06919388473033905
  endloop
 endfacet
 facet normal 0 0.69193878224228167 -0.72195617708353199
  outer loop
   vertex -1.5 0.072195611894130707 -0.06919388473033905
   vertex 1.5 0.072195611894130707 -0.06919388473033905
   vertex -1.5 0.066067472100257874 -0.075067229568958282
  endloop
 endfacet
 facet normal 0 0.69193878224228167 -0.72195617708353199
  outer loop
   vertex 1.5 0.072195611894130707 -0.06919388473033905
   vertex 1.5 0.066067472100257874 -0.075067229568958282
   vertex -1.5 0.066067472100257874 -0.075067229568958282
  endloop
 endfacet
 facet normal 0 0.62822022366653407 -0.77803557153665526
  outer loop
   vertex -1.5 0.066067472100257874 -0.075067229568958282
   vertex 1.5 0.066067472100257874 -0.075067229568958282
   vertex -1.5 0.059463318437337875 -0.080399714410305023
  endloop
 endfacet
 facet normal 0 0.62822022366653407 -0.77803557153665526
  outer loop
   vertex 1.5 0.066067472100257874 -0.075067229568958282
   vertex 1.5 0.059463318437337875 -0.080399714410305023
   vertex -1.5 0.059463318437337875 -0.080399714410305023
  endloop
 endfacet
 facet normal 0 0.55997476373690291 -0.82850966438406726
  outer loop
   vertex -1.5 0.059463318437337875 -0.080399714410305023
   vertex 1.5 0.059463318437337875 -0.080399714410305023
   vertex -1.5 0.052430726587772369 -0.085152916610240936
  endloop
 endfacet
 facet normal 0 0.55997476373690291 -0.82850966438406726
  outer loop
   vertex 1.5 0.059463318437337875 -0.080399714410305023
   vertex 1.5 0.052430726587772369 -0.085152916610240936
   vertex -1.5 0.052430726587772369 -0.085152916610240936
  endloop
 endfacet
 facet normal 0 0.48769482699081218 -0.87301417842232198
  outer loop
   vertex -1.5 0.052430726587772369 -0.085152916610240936
   vertex 1.5 0.052430726587772369 -0.085152916610240936
   vertex -1.5 0.045020375400781631 -0.089292585849761963
  endloop
 endfacet
 facet normal 0 0.48769482699081218 -0.87301417842232198
  outer loop
   vertex 1.5 0.052430726587772369 -0.085152916610240936
   vertex 1.5 0.045020375400781631 -0.089292585849761963
   vertex -1.5 0.045020375400781631 -0.089292585849761963
  endloop
 endfacet
 facet normal 0 0.41190143950704866 -0.91122840393175908
  outer loop
   vertex -1.5 0.045020375400781631 -0.089292585849761963
   vertex 1.5 0.045020375400781631 -0.089292585849761963
   vertex -1.5 0.037285648286342621 -0.092788904905319214
  endloop
 endfacet
 facet normal 0 0.41190143950704866 -0.91122840393175908
  outer loop
   vertex 1.5 0.045020375400781631 -0.089292585849761963
   vertex 1.5 0.037285648286342621 -0.092788904905319214
   vertex -1.5 0.037285648286342621 -0.092788904905319214
  endloop
 endfacet
 facet normal 0 0.33313981548194493 -0.94287743813321556
  outer loop
   vertex -1.5 0.037285648286342621 -0.092788904905319214
   vertex 1.5 0.037285648286342621 -0.092788904905319214
   vertex -1.5 0.029282277449965477 -0.095616675913333893
  endloop
 endfacet
 facet normal 0 0.33313981548194493 -0.94287743813321556
  outer loop
   vertex 1.5 0.037285648286342621 -0.092788904905319214
   vertex 1.5 0.029282277449965477 -0.095616675913333893
   vertex -1.5 0.029282277449965477 -0.095616675913333893
  endloop
 endfacet
 facet normal 0 0.25197751297927612 -0.96773308972711003
  outer loop
   vertex -1.5 0.029282277449965477 -0.095616675913333893
   vertex 1.5 0.029282277449965477 -0.095616675913333893
   vertex -1.5 0.021067926660180092 -0.097755521535873413
  endloop
 endfacet
 facet normal 0 0.25197751297927612 -0.96773308972711003
  outer loop
   vertex 1.5 0.029282277449965477 -0.095616675913333893
   vertex 1.5 0.021067926660180092 -0.097755521535873413
   vertex -1.5 0.021067926660180092 -0.097755521535873413
  endloop
 endfacet
 facet normal 0 0.16900086456839433 -0.9856159027608753
  outer loop
   vertex -1.5 0.021067926660180092 -0.097755521535873413
   vertex 1.5 0.021067926660180092 -0.097755521535873413
   vertex -1.5 0.012701782397925854 -0.099190041422843933
  endloop
 endfacet
 facet normal 0 0.16900086456839433 -0.9856159027608753
  outer loop
   vertex 1.5 0.021067926660180092 -0.097755521535873413
   vertex 1.5 0.012701782397925854 -0.099190041422843933
   vertex -1.5 0.012701782397925854 -0.099190041422843933
  endloop
 endfacet
 facet normal 0 0.084805879499127795 -0.99639749237057973
  outer loop
   vertex -1.5 0.012701782397925854 -0.099190041422843933
   vertex 1.5 0.012701782397925854 -0.099190041422843933
   vertex -1.5 0.0042441203258931637 -0.099909894168376923
  endloop
 endfacet
 facet normal 0 0.084805879499127795 -0.99639749237057973
  outer loop
   vertex 1.5 0.012701782397925854 -0.099190041422843933
   vertex 1.5 0.0042441203258931637 -0.099909894168376923
   vertex -1.5 0.0042441203258931637 -0.099909894168376923
  endloop
 endfacet
 facet normal -0 0 -1
  outer loop
   vertex -1.5 0.0042441203258931637 -0.099909894168376923
   vertex 1.5 0.0042441203258931637 -0.099909894168376923
   vertex -1.5 -0.0042441203258931637 -0.099909894168376923
  endloop
 endfacet
 facet normal 0 0 -1
  outer loop
   vertex 1.5 0.0042441203258931637 -0.099909894168376923
   vertex 1.5 -0.0042441203258931637 -0.099909894168376923
   vertex -1.5 -0.0042441203258931637 -0.099909894168376923
  endloop
 endfacet
 facet normal -0 -0.084805879499127795 -0.99639749237057973
  outer loop
   vertex -1.5 -0.0042441203258931637 -0.099909894168376923
   vertex 1.5 -0.0042441203258931637 -0.099909894168376923
   vertex -1.5 -0.012701782397925854 -0.099190041422843933
  endloop
 endfacet
 facet normal -0 -0.084805879499127795 -0.99639749237057973
  outer loop
   vertex 1.5 -0.0042441203258931637 -0.099909894168376923
   vertex 1.5 -0.012701782397925854 -0.099190041422843933
   vertex -1.5 -0.012701782397925854 -0.099190041422843933
  endloop
 endfacet
 facet normal -0 -0.16900086456839433 -0.9856159027608753
  outer loop
   vertex -1.5 -0.012701782397925854 -0.099190041422843933
   vertex 1.5 -0.012701782397925854 -0.099190041422843933
   vertex -1.5 -0.021067926660180092 -0.097755521535873413
  endloop
 endfacet
 facet normal -0 -0.16900086456839433 -0.9856159027608753
  outer loop
   vertex 1.5 -0.012701782397925854 -0.099190041422843933
   vertex 1.5 -0.021067926660180092 -0.097755521535873413
   vertex -1.5 -0.021067926660180092 -0.097755521535873413
  endloop
 endfacet
 facet normal -0 -0.25197751297927612 -0.96773308972711003
  outer loop
   vertex -1.5 -0.021067926660180092 -0.097755521535873413
   vertex 1.5 -0.021067926660180092 -0.097755521535873413
   vertex -1.5 -0.029282277449965477 -0.095616675913333893
  endloop
 endfacet
 facet normal -0 -0.25197751297927612 -0.96773308972711003
  outer loop
   vertex 1.5 -0.021067926660180092 -0.097755521535873413
   vertex 1.5 -0.029282277449965477 -0.095616675913333893
   vertex -1.5 -0.029282277449965477 -0.095616675913333893
  endloop
 endfacet
 facet normal -0 -0.33313981548194493 -0.94287743813321556
  outer loop
   vertex -1.5 -0.029282277449965477 -0.095616675913333893
   vertex 1.5 -0.029282277449965477 -0.095616675913333893
   vertex -1.5 -0.037285648286342621 -0.092788904905319214
  endloop
 endfacet
 facet normal -0 -0.33313981548194493 -0.94287743813321556
  outer loop
   vertex 1.5 -0.029282277449965477 -0.095616675913333893
   vertex 1.5 -0.037285648286342621 -0.092788904905319214
   vertex -1.5 -0.037285648286342621 -0.092788904905319214
  endloop
 endfacet
 facet normal -0 -0.41190143950704866 -0.91122840393175908
  outer loop
   vertex -1.5 -0.037285648286342621 -0.092788904905319214
   vertex 1.5 -0.037285648286342621 -0.092788904905319214
   vertex -1.5 -0.045020375400781631 -0.089292585849761963
  endloop
 endfacet
 facet normal -0 -0.41190143950704866 -0.91122840393175908
  outer loop
   vertex 1.5 -0.037285648286342621 -0.092788904905319214
   vertex 1.5 -0.045020375400781631 -0.089292585849761963
   vertex -1.5 -0.045020375400781631 -0.089292585849761963
  endloop
 endfacet
 facet normal -0 -0.48769482699081218 -0.87301417842232198
  outer loop
   vertex -1.5 -0.045020375400781631 -0.089292585849761963
   vertex 1.5 -0.045020375400781631 -0.089292585849761963
   vertex -1.5 -0.052430726587772369 -0.085152916610240936
  endloop
 endfacet
 facet normal -0 -0.48769482699081218 -0.87301417842232198
  outer loop
   vertex 1.5 -0.045020375400781631 -0.089292585849761963
   vertex 1.5 -0.052430726587772369 -0.085152916610240936
   vertex -1.5 -0.052430726587772369 -0.085152916610240936
  endloop
 endfacet
 facet normal -0 -0.55997476373690291 -0.82850966438406726
  outer loop
   vertex -1.5 -0.052430726587772369 -0.085152916610240936
   vertex 1.5 -0.052430726587772369 -0.085152916610240936
   vertex -1.5 -0.059463318437337875 -0.080399714410305023
  endloop
 endfacet
 facet normal -0 -0.55997476373690291 -0.82850966438406726
  outer loop
   vertex 1.5 -0.052430726587772369 -0.085152916610240936
   vertex 1.5 -0.059463318437337875 -0.080399714410305023
   vertex -1.5 -0.059463318437337875 -0.080399714410305023
  endloop
 endfacet
 facet normal -0 -0.62822022366653407 -0.77803557153665526
  outer loop
   vertex -1.5 -0.059463318437337875 -0.080399714410305023
   vertex 1.5 -0.059463318437337875 -0.080399714410305023
   vertex -1.5 -0.066067472100257874 -0.075067229568958282
  endloop
 endfacet
 facet normal -0 -0.62822022366653407 -0.77803557153665526
  outer loop
   vertex 1.5 -0.059463318437337875 -0.080399714410305023
   vertex 1.5 -0.066067472100257874 -0.075067229568958282
   vertex -1.5 -0.066067472100257874 -0.075067229568958282
  endloop
 endfacet
 facet normal -0 -0.69193878224228167 -0.72195617708353199
  outer loop
   vertex -1.5 -0.066067472100257874 -0.075067229568958282
   vertex 1.5 -0.066067472100257874 -0.075067229568958282
   vertex -1.5 -0.072195611894130707 -0.06919388473033905
  endloop
 endfacet
 facet normal -0 -0.69193878224228167 -0.72195617708353199
  outer loop
   vertex 1.5 -0.066067472100257874 -0.075067229568958282
   vertex 1.5 -0.072195611894130707 -0.06919388473033905
   vertex -1.5 -0.072195611894130707 -0.06919388473033905
  endloop
 endfacet
 facet normal -0 -0.75067242172268778 -0.66067459105447301
  outer loop
   vertex -1.5 -0.072195611894130707 -0.06919388473033905
   vertex 1.5 -0.072195611894130707 -0.06919388473033905
   vertex -1.5 -0.077803574502468109 -0.062821999192237854
  endloop
 endfacet
 facet normal -0 -0.75067242172268778 -0.66067459105447301
  outer loop
   vertex 1.5 -0.072195611894130707 -0.06919388473033905
   vertex 1.5 -0.077803574502468109 -0.062821999192237854
   vertex -1.5 -0.077803574502468109 -0.062821999192237854
  endloop
 endfacet
 facet normal -0 -0.80399712539766688 -0.59463318302318802
  outer loop
   vertex -1.5 -0.077803574502468109 -0.062821999192237854
   vertex 1.5 -0.077803574502468109 -0.062821999192237854
   vertex -1.5 -0.08285096287727356 -0.05599747970700264
  endloop
 endfacet
 facet normal -0 -0.80399712539766688 -0.59463318302318802
  outer loop
   vertex 1.5 -0.077803574502468109 -0.062821999192237854
   vertex 1.5 -0.08285096287727356 -0.05599747970700264
   vertex -1.5 -0.08285096287727356 -0.05599747970700264
  endloop
 endfacet
 facet normal -0 -0.8515291519265209 -0.52430726050599386
  outer loop
   vertex -1.5 -0.08285096287727356 -0.05599747970700264
   vertex 1.5 -0.08285096287727356 -0.05599747970700264
   vertex -1.5 -0.087301410734653473 -0.048769492655992508
  endloop
 endfacet
 facet normal -0 -0.8515291519265209 -0.52430726050599386
  outer loop
   vertex 1.5 -0.08285096287727356 -0.05599747970700264
   vertex 1.5 -0.087301410734653473 -0.048769492655992508
   vertex -1.5 -0.087301410734653473 -0.048769492655992508
  endloop
 endfacet
 facet normal -0 -0.89292570181105357 -0.45020405489648524
  outer loop
   vertex -1.5 -0.087301410734653473 -0.048769492655992508
   vertex 1.5 -0.087301410734653473 -0.048769492655992508
   vertex -1.5 -0.091122850775718689 -0.041190125048160553
  endloop
 endfacet
 facet normal -0 -0.89292570181105357 -0.45020405489648524
  outer loop
   vertex 1.5 -0.087301410734653473 -0.048769492655992508
   vertex 1.5 -0.091122850775718689 -0.041190125048160553
   vertex -1.5 -0.091122850775718689 -0.041190125048160553
  endloop
 endfacet
 facet normal -0 -0.92788907313027236 -0.37285636371858288
  outer loop
   vertex -1.5 -0.091122850775718689 -0.041190125048160553
   vertex 1.5 -0.091122850775718689 -0.041190125048160553
   vertex -1.5 -0.094287745654582977 -0.033313978463411331
  endloop
 endfacet
 facet normal -0 -0.92788907313027236 -0.37285636371858288
  outer loop
   vertex 1.5 -0.091122850775718689 -0.041190125048160553
   vertex 1.5 -0.094287745654582977 -0.033313978463411331
   vertex -1.5 -0.094287745654582977 -0.033313978463411331
  endloop
 endfacet
 facet normal -0 -0.95616670142577109 -0.29282288005646051
  outer loop
   vertex -1.5 -0.094287745654582977 -0.033313978463411331
   vertex 1.5 -0.094287745654582977 -0.033313978463411331
   vertex -1.5 -0.096773296594619751 -0.025197805836796761
  endloop
 endfacet
 facet normal -0 -0.95616670142577109 -0.29282288005646051
  outer loop
   vertex 1.5 -0.094287745654582977 -0.033313978463411331
   vertex 1.5 -0.096773296594619751 -0.025197805836796761
   vertex -1.5 -0.096773296594619751 -0.025197805836796761
  endloop
 endfacet
 facet normal -0 -0.97755525479117389 -0.21067919648167235
  outer loop
   vertex -1.5 -0.096773296594619751 -0.025197805836796761
   vertex 1.5 -0.096773296594619751 -0.025197805836796761
   vertex -1.5 -0.098561592400074005 -0.016900081187486649
  endloop
 endfacet
 facet normal -0 -0.97755525479117389 -0.21067919648167235
  outer loop
   vertex 1.5 -0.096773296594619751 -0.025197805836796761
   vertex 1.5 -0.098561592400074005 -0.016900081187486649
   vertex -1.5 -0.098561592400074005 -0.016900081187486649
  endloop
 endfacet
 facet normal -0 -0.99190042146737867 -0.12701792744662754
  outer loop
   vertex -1.5 -0.098561592400074005 -0.016900081187486649
   vertex 1.5 -0.098561592400074005 -0.016900081187486649
   vertex -1.5 -0.099639751017093658 -0.0084805926308035851
  endloop
 endfacet
 facet normal -0 -0.99190042146737867 -0.12701792744662754
  outer loop
   vertex 1.5 -0.098561592400074005 -0.016900081187486649
   vertex 1.5 -0.099639751017093658 -0.0084805926308035851
   vertex -1.5 -0.099639751017093658 -0.0084805926308035851
  endloop
 endfacet
 facet normal -0 -0.99909896960415912 -0.042441123169719694
  outer loop
   vertex -1.5 -0.099639751017093658 -0.0084805926308035851
   vertex 1.5 -0.099639751017093658 -0.0084805926308035851
   vertex -1.5 -0.10000000149011612 -1.2246467698671066e-17
  endloop
 endfacet
 facet normal -0 -0.99909896960415912 -0.042441123169719694
  outer loop
   vertex 1.5 -0.099639751017093658 -0.0084805926308035851
   vertex 1.5 -0.10000000149011612 -1.2246467698671066e-17
   vertex -1.5 -0.10000000149011612 -1.2246467698671066e-17
  endloop
 endfacet
 facet normal 0 -0.99909896960415923 0.042441123169719583
  outer loop
   vertex -1.5 -0.10000000149011612 -1.2246467698671066e-17
   vertex 1.5 -0.10000000149011612 -1.2246467698671066e-17
   vertex -1.5 -0.099639751017093658 0.0084805926308035851
  endloop
 endfacet
 facet normal 0 -0.99909896960415923 0.042441123169719583
  outer loop
   vertex 1.5 -0.10000000149011612 -1.2246467698671066e-17
   vertex 1.5 -0.099639751017093658 0.0084805926308035851
   vertex -1.5 -0.099639751017093658 0.0084805926308035851
  endloop
 endfacet
 facet normal 0 -0.99190042146737867 0.12701792744662754
  outer loop
   vertex -1.5 -0.099639751017093658 0.0084805926308035851
   vertex 1.5 -0.099639751017093658 0.0084805926308035851
   vertex -1.5 -0.098561592400074005 0.016900081187486649
  endloop
 endfacet
 facet normal 0 -0.99190042146737867 0.12701792744662754
  outer loop
   vertex 1.5 -0.099639751017093658 0.0084805926308035851
   vertex 1.5 -0.098561592400074005 0.016900081187486649
   vertex -1.5 -0.098561592400074005 0.016900081187486649
  endloop
 endfacet
 facet normal 0 -0.97755525479117389 0.21067919648167235
  outer loop
   vertex -1.5 -0.098561592400074005 0.016900081187486649
   vertex 1.5 -0.098561592400074005 0.016900081187486649
   vertex -1.5 -0.096773296594619751 0.025197805836796761
  endloop
 endfacet
 facet normal 0 -0.97755525479117389 0.21067919648167235
  outer loop
   vertex 1.5 -0.098561592400074005 0.016900081187486649
   vertex 1.5 -0.096773296594619751 0.025197805836796761
   vertex -1.5 -0.096773296594619751 0.025197805836796761
  endloop
 endfacet
 facet normal 0 -0.95616670142577109 0.29282288005646051
  outer loop
   vertex -1.5 -0.096773296594619751 0.025197805836796761
   vertex 1.5 -0.096773296594619751 0.025197805836796761
   vertex -1.5 -0.094287745654582977 0.033313978463411331
  endloop
 endfacet
 facet normal 0 -0.95616670142577109 0.29282288005646051
  outer loop
   vertex 1.5 -0.096773296594619751 0.025197805836796761
   vertex 1.5 -0.094287745654582977 0.033313978463411331
   vertex -1.5 -0.094287745654582977 0.033313978463411331
  endloop
 endfacet
 facet normal 0 -0.92788907313027236 0.37285636371858288
  outer loop
   vertex -1.5 -0.094287745654582977 0.033313978463411331
   vertex 1.5 -0.094287745654582977 0.033313978463411331
   vertex -1.5 -0.091122850775718689 0.041190125048160553
  endloop
 endfacet
 facet normal 0 -0.92788907313027236 0.37285636371858288
  outer loop
   vertex 1.5 -0.094287745654582977 0.033313978463411331
   vertex 1.5 -0.091122850775718689 0.041190125048160553
   vertex -1.5 -0.091122850775718689 0.041190125048160553
  endloop
 endfacet
 facet normal 0 -0.89292570181105357 0.45020405489648524
  outer loop
   vertex -1.5 -0.091122850775718689 0.041190125048160553
   vertex 1.5 -0.091122850775718689 0.041190125048160553
   vertex -1.5 -0.087301410734653473 0.048769492655992508
  endloop
 endfacet
 facet normal 0 -0.89292570181105357 0.45020405489648524
  outer loop
   vertex 1.5 -0.091122850775718689 0.041190125048160553
   vertex 1.5 -0.087301410734653473 0.048769492655992508
   vertex -1.5 -0.087301410734653473 0.048769492655992508
  endloop
 endfacet
 facet normal 0 -0.8515291519265209 0.52430726050599386
  outer loop
   vertex -1.5 -0.087301410734653473 0.048769492655992508
   vertex 1.5 -0.087301410734653473 0.048769492655992508
   vertex -1.5 -0.08285096287727356 0.05599747970700264
  endloop
 endfacet
 facet normal 0 -0.8515291519265209 0.52430726050599386
  outer loop
   vertex 1.5 -0.087301410734653473 0.048769492655992508
   vertex 1.5 -0.08285096287727356 0.05599747970700264
   vertex -1.5 -0.08285096287727356 0.05599747970700264
  endloop
 endfacet
 facet normal 0 -0.80399712539766688 0.59463318302318802
  outer loop
   vertex -1.5 -0.08285096287727356 0.05599747970700264
   vertex 1.5 -0.08285096287727356 0.05599747970700264
   vertex -1.5 -0.077803574502468109 0.062821999192237854
  endloop
 endfacet
 facet normal 0 -0.80399712539766688 0.59463318302318802
  outer loop
   vertex 1.5 -0.08285096287727356 0.05599747970700264
   vertex 1.5 -0.077803574502468109 0.062821999192237854
   vertex -1.5 -0.077803574502468109 0.062821999192237854
  endloop
 endfacet
 facet normal 0 -0.75067242172268778 0.66067459105447301
  outer loop
   vertex -1.5 -0.077803574502468109 0.062821999192237854
   vertex 1.5 -0.077803574502468109 0.062821999192237854
   vertex -1.5 -0.072195611894130707 0.06919388473033905
  endloop
 endfacet
 facet normal 0 -0.75067242172268778 0.66067459105447301
  outer loop
   vertex 1.5 -0.077803574502468109 0.062821999192237854
   vertex 1.5 -0.072195611894130707 0.06919388473033905
   vertex -1.5 -0.072195611894130707 0.06919388473033905
  endloop
 endfacet
 facet normal 0 -0.69193878224228167 0.72195617708353199
  outer loop
   vertex -1.5 -0.072195611894130707 0.06919388473033905
   vertex 1.5 -0.072195611894130707 0.06919388473033905
   vertex -1.5 -0.066067472100257874 0.075067229568958282
  endloop
 endfacet
 facet normal 0 -0.69193878224228167 0.72195617708353199
  outer loop
   vertex 1.5 -0.072195611894130707 0.06919388473033905
   vertex 1.5 -0.066067472100257874 0.075067229568958282
   vertex -1.5 -0.066067472100257874 0.075067229568958282
  endloop
 endfacet
 facet normal 0 -0.62822022366653407 0.77803557153665526
  outer loop
   vertex -1.5 -0.066067472100257874 0.075067229568958282
   vertex 1.5 -0.066067472100257874 0.075067229568958282
   vertex -1.5 -0.059463318437337875 0.080399714410305023
  endloop
 endfacet
 facet normal 0 -0.62822022366653407 0.77803557153665526
  outer loop
   vertex 1.5 -0.066067472100257874 0.075067229568958282
   vertex 1.5 -0.059463318437337875 0.080399714410305023
   vertex -1.5 -0.059463318437337875 0.080399714410305023
  endloop
 endfacet
 facet normal 0 -0.55997476373690291 0.82850966438406726
  outer loop
   vertex -1.5 -0.059463318437337875 0.080399714410305023
   vertex 1.5 -0.059463318437337875 0.080399714410305023
   vertex -1.5 -0.052430726587772369 0.085152916610240936
  endloop
 endfacet
 facet normal 0 -0.55997476373690291 0.82850966438406726
  outer loop
   vertex 1.5 -0.059463318437337875 0.080399714410305023
   vertex 1.5 -0.052430726587772369 0.085152916610240936
   vertex -1.5 -0.052430726587772369 0.085152916610240936
  endloop
 endfacet
 facet normal 0 -0.48769482699081218 0.87301417842232198
  outer loop
   vertex -1.5 -0.052430726587772369 0.085152916610240936
   vertex 1.5 -0.052430726587772369 0.085152916610240936
   vertex -1.5 -0.045020375400781631 0.089292585849761963
  endloop
 endfacet
 facet normal 0 -0.48769482699081218 0.87301417842232198
  outer loop
   vertex 1.5 -0.052430726587772369 0.085152916610240936
   vertex 1.5 -0.045020375400781631 0.089292585849761963
   vertex -1.5 -0.045020375400781631 0.089292585849761963
  endloop
 endfacet
 facet normal 0 -0.41190143950704866 0.91122840393175908
  outer loop
   vertex -1.5 -0.045020375400781631 0.089292585849761963
   vertex 1.5 -0.045020375400781631 0.089292585849761963
   vertex -1.5 -0.037285648286342621 0.092788904905319214
  endloop
 endfacet
 facet normal 0 -0.41190143950704866 0.91122840393175908
  outer loop
   vertex 1.5 -0.045020375400781631 0.089292585849761963
   vertex 1.5 -0.037285648286342621 0.092788904905319214
   vertex -1.5 -0.037285648286342621 0.092788904905319214
  endloop
 endfacet
 facet normal 0 -0.33313981548194493 0.94287743813321556
  outer loop
   vertex -1.5 -0.037285648286342621 0.092788904905319214
   vertex 1.5 -0.037285648286342621 0.092788904905319214
   vertex -1.5 -0.029282277449965477 0.095616675913333893
  endloop
 endfacet
 facet normal 0 -0.33313981548194493 0.94287743813321556
  outer loop
   vertex 1.5 -0.037285648286342621 0.092788904905319214
   vertex 1.5 -0.029282277449965477 0.095616675913333893
   vertex -1.5 -0.029282277449965477 0.095616675913333893
  endloop
 endfacet
 facet normal 0 -0.25197751297927612 0.96773308972711003
  outer loop
   vertex -1.5 -0.029282277449965477 0.095616675913333893
   vertex 1.5 -0.029282277449965477 0.095616675913333893
   vertex -1.5 -0.021067926660180092 0.097755521535873413
  endloop
 endfacet
 facet normal 0 -0.25197751297927612 0.96773308972711003
  outer loop
   vertex 1.5 -0.029282277449965477 0.095616675913333893
   vertex 1.5 -0.021067926660180092 0.097755521535873413
   vertex -1.5 -0.021067926660180092 0.097755521535873413
  endloop
 endfacet
 facet normal 0 -0.16900086456839433 0.9856159027608753
  outer loop
   vertex -1.5 -0.021067926660180092 0.097755521535873413
   vertex 1.5 -0.021067926660180092 0.097755521535873413
   vertex -1.5 -0.012701782397925854 0.099190041422843933
  endloop
 endfacet
 facet normal 0 -0.16900086456839433 0.9856159027608753
  outer loop
   vertex 1.5 -0.021067926660180092 0.097755521535873413
   vertex 1.5 -0.012701782397925854 0.099190041422843933
   vertex -1.5 -0.012701782397925854 0.099190041422843933
  endloop
 endfacet
 facet normal 0 -0.084805879499127795 0.99639749237057973
  outer loop
   vertex -1.5 -0.012701782397925854 0.099190041422843933
   vertex 1.5 -0.012701782397925854 0.099190041422843933
   vertex -1.5 -0.0042441203258931637 0.099909894168376923
  endloop
 endfacet
 facet normal 0 -0.084805879499127795 0.99639749237057973
  outer loop
   vertex 1.5 -0.012701782397925854 0.099190041422843933
   vertex 1.5 -0.0042441203258931637 0.099909894168376923
   vertex -1.5 -0.0042441203258931637 0.099909894168376923
  endloop
 endfacet
 facet normal 0 0 1
  outer loop
   vertex -1.5 -0.0042441203258931637 0.099909894168376923
   vertex 1.5 -0.0042441203258931637 0.099909894168376923
   vertex -1.5 0.0042441203258931637 0.099909894168376923
  endloop
 endfacet
 facet normal 0 0 1
  outer loop
   vertex 1.5 -0.0042441203258931637 0.099909894168376923
   vertex 1.5 0.0042441203258931637 0.099909894168376923
   vertex -1.5 0.0042441203258931637 0.099909894168376923
  endloop
 endfacet
 facet normal 0 0.084805879499127795 0.99639749237057973
  outer loop
   vertex -1.5 0.0042441203258931637 0.099909894168376923
   vertex 1.5 0.0042441203258931637 0.099909894168376923
   vertex -1.5 0.012701782397925854 0.099190041422843933
  endloop
 endfacet
 facet normal 0 0.084805879499127795 0.99639749237057973
  outer loop
   vertex 1.5 0.0042441203258931637 0.099909894168376923
   vertex 1.5 0.012701782397925854 0.099190041422843933
   vertex -1.5 0.012701782397925854 0.099190041422843933
  endloop
 endfacet
 facet normal 0 0.16900086456839433 0.9856159027608753
  outer loop
   vertex -1.5 0.012701782397925854 0.099190041422843933
   vertex 1.5 0.012701782397925854 0.099190041422843933
   vertex -1.5 0.021067926660180092 0.097755521535873413
  endloop
 endfacet
 facet normal 0 0.16900086456839433 0.9856159027608753
  outer loop
   vertex 1.5 0.012701782397925854 0.099190041422843933
   vertex 1.5 0.021067926660180092 0.097755521535873413
   vertex -1.5 0.021067926660180092 0.097755521535873413
  endloop
 endfacet
 facet normal 0 0.25197751297927612 0.96773308972711003
  outer loop
   vertex -1.5 0.021067926660180092 0.097755521535873413
   vertex 1.5 0.021067926660180092 0.097755521535873413
   vertex -1.5 0.029282277449965477 0.095616675913333893
  endloop
 endfacet
 facet normal 0 0.25197751297927612 0.96773308972711003
  outer loop
   vertex 1.5 0.021067926660180092 0.097755521535873413
   vertex 1.5 0.029282277449965477 0.095616675913333893
   vertex -1.5 0.029282277449965477 0.095616675913333893
  endloop
 endfacet
 facet normal 0 0.33313981548194493 0.94287743813321556
  outer loop
   vertex -1.5 0.029282277449965477 0.095616675913333893
   vertex 1.5 0.029282277449965477 0.095616675913333893
   vertex -1.5 0.037285648286342621 0.092788904905319214
  endloop
 endfacet
 facet normal 0 0.33313981548194493 0.94287743813321556
  outer loop
   vertex 1.5 0.029282277449965477 0.095616675913333893
   vertex 1.5 0.037285648286342621 0.092788904905319214
   vertex -1.5 0.037285648286342621 0.092788904905319214
  endloop
 endfacet
 facet normal 0 0.41190143950704866 0.91122840393175908
  outer loop
   vertex -1.5 0.037285648286342621 0.092788904905319214
   vertex 1.5 0.037285648286342621 0.092788904905319214
   vertex -1.5 0.045020375400781631 0.089292585849761963
  endloop
 endfacet
 facet normal 0 0.41190143950704866 0.91122840393175908
  outer loop
   vertex 1.5 0.037285648286342621 0.092788904905319214
   vertex 1.5 0.045020375400781631 0.089292585849761963
   vertex -1.5 0.045020375400781631 0.089292585849761963
  endloop
 endfacet
 facet normal 0 0.48769482699081218 0.87301417842232198
  outer loop
   vertex -1.5 0.045020375400781631 0.089292585849761963
   vertex 1.5 0.045020375400781631 0.089292585849761963
   vertex -1.5 0.052430726587772369 0.085152916610240936
  endloop
 endfacet
 facet normal 0 0.48769482699081218 0.87301417842232198
  outer loop
   vertex 1.5 0.045020375400781631 0.089292585849761963
   vertex 1.5 0.052430726587772369 0.085152916610240936
   vertex -1.5 0.052430726587772369 0.085152916610240936
  endloop
 endfacet
 facet normal 0 0.55997476373690291 0.82850966438406726
  outer loop
   vertex -1.5 0.052430726587772369 0.085152916610240936
   vertex 1.5 0.052430726587772369 0.085152916610240936
   vertex -1.5 0.059463318437337875 0.080399714410305023
  endloop
 endfacet
 facet normal 0 0.55997476373690291 0.82850966438406726
  outer loop
   vertex 1.5 0.052430726587772369 0.085152916610240936
   vertex 1.5 0.059463318437337875 0.080399714410305023
   vertex -1.5 0.059463318437337875 0.080399714410305023
  endloop
 endfacet
 facet normal 0 0.62822022366653407 0.77803557153665526
  outer loop
   vertex -1.5 0.059463318437337875 0.080399714410305023
   vertex 1.5 0.059463318437337875 0.080399714410305023
   vertex -1.5 0.066067472100257874 0.075067229568958282
  endloop
 endfacet
 facet normal 0 0.62822022366653407 0.77803557153665526
  outer loop
   vertex 1.5 0.059463318437337875 0.080399714410305023
   vertex 1.5 0.066067472100257874 0.075067229568958282
   vertex -1.5 0.066067472100257874 0.075067229568958282
  endloop
 endfacet
 facet normal 0 0.69193878224228167 0.72195617708353199
  outer loop
   vertex -1.5 0.066067472100257874 0.075067229568958282
   vertex 1.5 0.066067472100257874 0.075067229568958282
   vertex -1.5 0.072195611894130707 0.06919388473033905
  endloop
 endfacet
 facet normal 0 0.69193878224228167 0.72195617708353199
  outer loop
   vertex 1.5 0.066067472100257874 0.075067229568958282
   vertex 1.5 0.072195611894130707 0.06919388473033905
   vertex -1.5 0.072195611894130707 0.06919388473033905
  endloop
 endfacet
 facet normal 0 0.75067242172268778 0.66067459105447301
  outer loop
   vertex -1.5 0.072195611894130707 0.06919388473033905
   vertex 1.5 0.072195611894130707 0.06919388473033905
   vertex -1.5 0.077803574502468109 0.062821999192237854
  endloop
 endfacet
 facet normal 0 0.75067242172268778 0.66067459105447301
  outer loop
   vertex 1.5 0.072195611894130707 0.06919388473033905
   vertex 1.5 0.077803574502468109 0.062821999192237854
   vertex -1.5 0.077803574502468109 0.062821999192237854
  endloop
 endfacet
 facet normal 0 0.80399712539766688 0.59463318302318802
  outer loop
   vertex -1.5 0.077803574502468109 0.062821999192237854
   vertex 1.5 0.077803574502468109 0.062821999192237854
   vertex -1.5 0.08285096287727356 0.05599747970700264
  endloop
 endfacet
 facet normal 0 0.80399712539766688 0.59463318302318802
  outer loop
   vertex 1.5 0.077803574502468109 0.062821999192237854
   vertex 1.5 0.08285096287727356 0.05599747970700264
   vertex -1.5 0.08285096287727356 0.05599747970700264
  endloop
 endfacet
 facet normal 0 0.8515291519265209 0.52430726050599386
  outer loop
   vertex -1.5 0.08285096287727356 0.05599747970700264
   vertex 1.5 0.08285096287727356 0.05599747970700264
   vertex -1.5 0.087301410734653473 0.048769492655992508
  endloop
 endfacet
 facet normal 0 0.8515291519265209 0.52430726050599386
  outer loop
   vertex 1.5 0.08285096287727356 0.05599747970700264
   vertex 1.5 0.087301410734653473 0.048769492655992508
   vertex -1.5 0.087301410734653473 0.048769492655992508
  endloop
 endfacet
 facet normal 0 0.89292570181105357 0.45020405489648524
  outer loop
   vertex -1.5 0.087301410734653473 0.048769492655992508
   vertex 1.5 0.087301410734653473 0.048769492655992508
   vertex -1.5 0.091122850775718689 0.041190125048160553
  endloop
 endfacet
 facet normal 0 0.89292570181105357 0.45020405489648524
  outer loop
   vertex 1.5 0.087301410734653473 0.048769492655992508
   vertex 1.5 0.091122850775718689 0.041190125048160553
   vertex -1.5 0.091122850775718689 0.041190125048160553
  endloop
 endfacet
 facet normal 0 0.92788907313027236 0.37285636371858288
  outer loop
   vertex -1.5 0.091122850775718689 0.041190125048160553
   vertex 1.5 0.091122850775718689 0.041190125048160553
   vertex -1.5 0.094287745654582977 0.033313978463411331
  endloop
 endfacet
 facet normal 0 0.92788907313027236 0.37285636371858288
  outer loop
   vertex 1.5 0.091122850775718689 0.041190125048160553
   vertex 1.5 0.094287745654582977 0.033313978463411331
   vertex -1.5 0.094287745654582977 0.033313978463411331
  endloop
 endfacet
 facet normal 0 0.95616670142577109 0.29282288005646051
  outer loop
   vertex -1.5 0.094287745654582977 0.033313978463411331
   vertex 1.5 0.094287745654582977 0.033313978463411331
   vertex -1.5 0.096773296594619751 0.025197805836796761
  endloop
 endfacet
 facet normal 0 0.95616670142577109 0.29282288005646051
  outer loop
   vertex 1.5 0.094287745654582977 0.033313978463411331
   vertex 1.5 0.096773296594619751 0.025197805836796761
   vertex -1.5 0.096773296594619751 0.025197805836796761
  endloop
 endfacet
 facet normal 0 0.97755525479117389 0.21067919648167235
  outer loop
   vertex -1.5 0.096773296594619751 0.025197805836796761
   vertex 1.5 0.096773296594619751 0.025197805836796761
   vertex -1.5 0.098561592400074005 0.016900081187486649
  endloop
 endfacet
 facet normal 0 0.97755525479117389 0.21067919648167235
  outer loop
   vertex 1.5 0.096773296594619751 0.025197805836796761
   vertex 1.5 0.098561592400074005 0.016900081187486649
   vertex -1.5 0.098561592400074005 0.016900081187486649
  endloop
 endfacet
 facet normal 0 0.99190042146737867 0.12701792744662754
  outer loop
   vertex -1.5 0.098561592400074005 0.016900081187486649
   vertex 1.5 0.098561592400074005 0.016900081187486649
   vertex -1.5 0.099639751017093658 0.0084805926308035851
  endloop
 endfacet
 facet normal 0 0.99190042146737867 0.12701792744662754
  outer loop
   vertex 1.5 0.098561592400074005 0.016900081187486649
   vertex 1.5 0.099639751017093658 0.0084805926308035851
   vertex -1.5 0.099639751017093658 0.0084805926308035851
  endloop
 endfacet
 facet normal 0 0.99909896960415923 0.042441123169719645
  outer loop
   vertex -1.5 0.099639751017093658 0.0084805926308035851
   vertex 1.5 0.099639751017093658 0.0084805926308035851
   vertex -1.5 0.10000000149011612 0
  endloop
 endfacet
 facet normal 0 0.99909896960415923 0.042441123169719645
  outer loop
   vertex 1.5 0.099639751017093658 0.0084805926308035851
   vertex 1.5 0.10000000149011612 0
   vertex -1.5 0.10000000149011612 0
  endloop
 endfacet
 facet normal -1 0 0
  outer loop
   vertex -1.5 0.029282277449965477 -0.095616675913333893
   vertex -1.5 0.021067926660180092 -0.097755521535873413
   vertex -1.5 0.037285648286342621 -0.092788904905319214
  endloop
 endfacet
 facet normal -1 0 0
  outer loop
   vertex -1.5 0.037285648286342621 -0.092788904905319214
   vertex -1.5 0.021067926660180092 -0.097755521535873413
   vertex -1.5 0.045020375400781631 -0.089292585849761963
  endloop
 endfacet
 facet normal -1 0 0
  outer loop
   vertex -1.5 0.045020375400781631 -0.089292585849761963
   vertex -1.5 0.021067926660180092 -0.097755521535873413
   vertex -1.5 0.052430726587772369 -0.085152916610240936
  endloop
 endfacet
 facet normal -1 0 0
  outer loop
   vertex -1.5 0.052430726587772369 -0.085152916610240936
   vertex -1.5 0.021067926660180092 -0.097755521535873413
   vertex -1.5 0.059463318437337875 -0.080399714410305023
  endloop
 endfacet
 facet normal -1 0 0
  outer loop
   vertex -1.5 0.059463318437337875 -0.080399714410305023
   vertex -1.5 0.021067926660180092 -0.097755521535873413
   vertex -1.5 0.066067472100257874 -0.075067229568958282
  endloop
 endfacet
 facet normal -1 0 0
  outer loop
   vertex -1.5 0.066067472100257874 -0.075067229568958282
   vertex -1.5 0.021067926660180092 -0.097755521535873413
   vertex -1.5 0.072195611894130707 -0.06919388473033905
  endloop
 endfacet
 facet normal -1 0 0
  outer loop
   vertex -1.5 0.072195611894130707 -0.06919388473033905
   vertex -1.5 0.021067926660180092 -0.097755521535873413
   vertex -1.5 0.077803574502468109 -0.062821999192237854
  endloop
 endfacet
 facet normal -1 0 0
  outer loop
   vertex -1.5 0.077803574502468109 -0.062821999192237854
   vertex -1.5 0.021067926660180092 -0.097755521535873413
   vertex -1.5 0.08285096287727356 -0.05599747970700264
  endloop
 endfacet
 facet normal -1 0 0
  outer loop
   vertex -1.5 0.08285096287727356 -0.05599747970700264
   vertex -1.5 0.021067926660180092 -0.097755521535873413
   vertex -1.5 0.087301410734653473 -0.048769492655992508
  endloop
 endfacet
 facet normal -1 0 0
  outer loop
   vertex -1.5 0.021067926660180092 -0.097755521535873413
   vertex -1.5 0.012701782397925854 -0.099190041422843933
   vertex -1.5 0.087301410734653473 -0.048769492655992508
  endloop
 endfacet
 facet normal -1 0 0
  outer loop
   vertex -1.5 0.012701782397925854 -0.099190041422843933
   vertex -1.5 0.0042441203258931637 -0.099909894168376923
   vertex -1.5 0.087301410734653473 -0.048769492655992508
  endloop
 endfacet
 facet normal -1 0 0
  outer loop
   vertex -1.5 0.0042441203258931637 -0.099909894168376923
   vertex -1.5 -0.0042441203258931637 -0.099909894168376923
   vertex -1.5 0.087301410734653473 -0.048769492655992508
  endloop
 endfacet
 facet normal -1 0 0
  outer loop
   vertex -1.5 -0.0042441203258931637 -0.099909894168376923
   vertex -1.5 -0.012701782397925854 -0.099190041422843933
   vertex -1.5 0.087301410734653473 -0.048769492655992508
  endloop
 endfacet
 facet normal -1 0 0
  outer loop
   vertex -1.5 -0.012701782397925854 -0.099190041422843933
   vertex -1.5 -0.021067926660180092 -0.097755521535873413
   vertex -1.5 0.087301410734653473 -0.048769492655992508
  endloop
 endfacet
 facet normal -1 0 0
  outer loop
   vertex -1.5 0.087301410734653473 -0.048769492655992508
   vertex -1.5 -0.021067926660180092 -0.097755521535873413
   vertex -1.5 0.091122850775718689 -0.041190125048160553
  endloop
 endfacet
 facet normal -1 0 0
  outer loop
   vertex -1.5 0.091122850775718689 -0.041190125048160553
   vertex -1.5 -0.021067926660180092 -0.097755521535873413
   vertex -1.5 0.094287745654582977 -0.033313978463411331
  endloop
 endfacet
 facet normal -1 0 0
  outer loop
   vertex -1.5 0.094287745654582977 -0.033313978463411331
   vertex -1.5 -0.021067926660180092 -0.097755521535873413
   vertex -1.5 0.096773296594619751 -0.025197805836796761
  endloop
 endfacet
 facet normal -1 0 0
  outer loop
   vertex -1.5 0.096773296594619751 -0.025197805836796761
   vertex -1.5 -0.021067926660180092 -0.097755521535873413
   vertex -1.5 0.098561592400074005 -0.016900081187486649
  endloop
 endfacet
 facet normal -1 0 0
  outer loop
   vertex -1.5 0.098561592400074005 -0.016900081187486649
   vertex -1.5 -0.021067926660180092 -0.097755521535873413
   vertex -1.5 0.099639751017093658 -0.0084805926308035851
  endloop
 endfacet
 facet normal -1 0 0
  outer loop
   vertex -1.5 0.099639751017093658 -0.0084805926308035851
   vertex -1.5 -0.021067926660180092 -0.097755521535873413
   vertex -1.5 0.10000000149011612 0
  endloop
 endfacet
 facet normal -1 0 0
  outer loop
   vertex -1.5 0.10000000149011612 0
   vertex -1.5 -0.021067926660180092 -0.097755521535873413
   vertex -1.5 0.099639751017093658 0.0084805926308035851
  endloop
 endfacet
 facet normal -1 0 0
  outer loop
   vertex -1.5 0.099639751017093658 0.0084805926308035851
   vertex -1.5 -0.021067926660180092 -0.097755521535873413
   vertex -1.5 0.098561592400074005 0.016900081187486649
  endloop
 endfacet
 facet normal -1 0 0
  outer loop
   vertex -1.5 0.098561592400074005 0.016900081187486649
   vertex -1.5 -0.021067926660180092 -0.097755521535873413
   vertex -1.5 0.096773296594619751 0.025197805836796761
  endloop
 endfacet
 facet normal -1 0 0
  outer loop
   vertex -1.5 0.096773296594619751 0.025197805836796761
   vertex -1.5 -0.021067926660180092 -0.097755521535873413
   vertex -1.5 0.094287745654582977 0.033313978463411331
  endloop
 endfacet
 facet normal -1 0 0
  outer loop
   vertex -1.5 0.094287745654582977 0.033313978463411331
   vertex -1.5 -0.021067926660180092 -0.097755521535873413
   vertex -1.5 0.091122850775718689 0.041190125048160553
  endloop
 endfacet
 facet normal -1 0 0
  outer loop
   vertex -1.5 0.091122850775718689 0.041190125048160553
   vertex -1.5 -0.021067926660180092 -0.097755521535873413
   vertex -1.5 0.087301410734653473 0.048769492655992508
  endloop
 endfacet
 facet normal -1 0 0
  outer loop
   vertex -1.5 0.087301410734653473 0.048769492655992508
   vertex -1.5 -0.021067926660180092 -0.097755521535873413
   vertex -1.5 0.08285096287727356 0.05599747970700264
  endloop
 endfacet
 facet normal -1 0 0
  outer loop
   vertex -1.5 0.08285096287727356 0.05599747970700264
   vertex -1.5 -0.021067926660180092 -0.097755521535873413
   vertex -1.5 0.077803574502468109 0.062821999192237854
  endloop
 endfacet
 facet normal -1 0 0
  outer loop
   vertex -1.5 -0.021067926660180092 -0.097755521535873413
   vertex -1.5 -0.029282277449965477 -0.095616675913333893
   vertex -1.5 0.077803574502468109 0.062821999192237854
  endloop
 endfacet
 facet normal -1 0 0
  outer loop
   vertex -1.5 -0.029282277449965477 -0.095616675913333893
   vertex -1.5 -0.037285648286342621 -0.092788904905319214
   vertex -1.5 0.077803574502468109 0.062821999192237854
  endloop
 endfacet
 facet normal -1 0 0
  outer loop
   vertex -1.5 -0.037285648286342621 -0.092788904905319214
   vertex -1.5 -0.045020375400781631 -0.089292585849761963
   vertex -1.5 0.077803574502468109 0.062821999192237854
  endloop
 endfacet
 facet normal -1 0 0
  outer loop
   vertex -1.5 0.077803574502468109 0.062821999192237854
   vertex -1.5 -0.045020375400781631 -0.089292585849761963
   vertex -1.5 0.072195611894130707 0.06919388473033905
  endloop
 endfacet
 facet normal -1 0 0
  outer loop
   vertex -1.5 0.072195611894130707 0.06919388473033905
   vertex -1.5 -0.045020375400781631 -0.089292585849761963
   vertex -1.5 0.066067472100257874 0.075067229568958282
  endloop
 endfacet
 facet normal -1 0 0
  outer loop
   vertex -1.5 0.066067472100257874 0.075067229568958282
   vertex -1.5 -0.045020375400781631 -0.089292585849761963
   vertex -1.5 0.059463318437337875 0.080399714410305023
  endloop
 endfacet
 facet normal -1 0 0
  outer loop
   vertex -1.5 0.059463318437337875 0.080399714410305023
   vertex -1.5 -0.045020375400781631 -0.089292585849761963
   vertex -1.5 0.052430726587772369 0.085152916610240936
  endloop
 endfacet
 facet normal -1 0 0
  outer loop
   vertex -1.5 0.052430726587772369 0.085152916610240936
   vertex -1.5 -0.045020375400781631 -0.089292585849761963
   vertex -1.5 0.045020375400781631 0.089292585849761963
  endloop
 endfacet
 facet normal -1 0 0
  outer loop
   vertex -1.5 0.045020375400781631 0.089292585849761963
   vertex -1.5 -0.045020375400781631 -0.089292585849761963
   vertex -1.5 0.037285648286342621 0.092788904905319214
  endloop
 endfacet
 facet normal -1 0 0
  outer loop
   vertex -1.5 0.037285648286342621 0.092788904905319214
   vertex -1.5 -0.045020375400781631 -0.089292585849761963
   vertex -1.5 0.029282277449965477 0.095616675913333893
  endloop
 endfacet
 facet normal -1 0 0
  outer loop
   vertex -1.5 0.029282277449965477 0.095616675913333893
   vertex -1.5 -0.045020375400781631 -0.089292585849761963
   vertex -1.5 0.021067926660180092 0.097755521535873413
  endloop
 endfacet
 facet normal -1 0 0
  outer loop
   vertex -1.5 0.021067926660180092 0.097755521535873413
   vertex -1.5 -0.045020375400781631 -0.089292585849761963
   vertex -1.5 0.012701782397925854 0.099190041422843933
  endloop
 endfacet
 facet normal -1 0 0
  outer loop
   vertex -1.5 0.012701782397925854 0.099190041422843933
   vertex -1.5 -0.045020375400781631 -0.089292585849761963
   vertex -1.5 0.0042441203258931637 0.099909894168376923
  endloop
 endfacet
 facet normal -1 0 0
  outer loop
   vertex -1.5 0.0042441203258931637 0.099909894168376923
   vertex -1.5 -0.045020375400781631 -0.089292585849761963
   vertex -1.5 -0.0042441203258931637 0.099909894168376923
  endloop
 endfacet
 facet normal -1 0 0
  outer loop
   vertex -1.5 -0.0042441203258931637 0.099909894168376923
   vertex -1.5 -0.045020375400781631 -0.089292585849761963
   vertex -1.5 -0.012701782397925854 0.099190041422843933
  endloop
 endfacet
 facet normal -1 0 0
  outer loop
   vertex -1.5 -0.012701782397925854 0.099190041422843933
   vertex -1.5 -0.045020375400781631 -0.089292585849761963
   vertex -1.5 -0.021067926660180092 0.097755521535873413
  endloop
 endfacet
 facet normal -1 0 0
  outer loop
   vertex -1.5 -0.021067926660180092 0.097755521535873413
   vertex -1.5 -0.045020375400781631 -0.089292585849761963
   vertex -1.5 -0.029282277449965477 0.095616675913333893
  endloop
 endfacet
 facet normal -1 0 0
  outer loop
   vertex -1.5 -0.029282277449965477 0.095616675913333893
   vertex -1.5 -0.045020375400781631 -0.089292585849761963
   vertex -1.5 -0.037285648286342621 0.092788904905319214
  endloop
 endfacet
 facet normal -1 0 0
  outer loop
   vertex -1.5 -0.037285648286342621 0.092788904905319214
   vertex -1.5 -0.045020375400781631 -0.089292585849761963
   vertex -1.5 -0.045020375400781631 0.089292585849761963
  endloop
 endfacet
 facet normal -1 0 0
  outer loop
   vertex -1.5 -0.045020375400781631 0.089292585849761963
   vertex -1.5 -0.045020375400781631 -0.089292585849761963
   vertex -1.5 -0.052430726587772369 0.085152916610240936
  endloop
 endfacet
 facet normal -1 0 0
  outer loop
   vertex -1.5 -0.052430726587772369 0.085152916610240936
   vertex -1.5 -0.045020375400781631 -0.089292585849761963
   vertex -1.5 -0.059463318437337875 0.080399714410305023
  endloop
 endfacet
 facet normal -1 0 0
  outer loop
   vertex -1.5 -0.059463318437337875 0.080399714410305023
   vertex -1.5 -0.045020375400781631 -0.089292585849761963
   vertex -1.5 -0.066067472100257874 0.075067229568958282
  endloop
 endfacet
 facet normal -1 0 0
  outer loop
   vertex -1.5 -0.066067472100257874 0.075067229568958282
   vertex -1.5 -0.045020375400781631 -0.089292585849761963
   vertex -1.5 -0.072195611894130707 0.06919388473033905
  endloop
 endfacet
 facet normal -1 0 0
  outer loop
   vertex -1.5 -0.045020375400781631 -0.089292585849761963
   vertex -1.5 -0.052430726587772369 -0.085152916610240936
   vertex -1.5 -0.072195611894130707 0.06919388473033905
  endloop
 endfacet
 facet normal -1 0 0
  outer loop
   vertex -1.5 -0.052430726587772369 -0.085152916610240936
   vertex -1.5 -0.059463318437337875 -0.080399714410305023
   vertex -1.5 -0.072195611894130707 0.06919388473033905
  endloop
 endfacet
 facet normal -1 0 0
  outer loop
   vertex -1.5 -0.059463318437337875 -0.080399714410305023
   vertex -1.5 -0.066067472100257874 -0.075067229568958282
   vertex -1.5 -0.072195611894130707 0.06919388473033905
  endloop
 endfacet
 facet normal -1 0 0
  outer loop
   vertex -1.5 -0.066067472100257874 -0.075067229568958282
   vertex -1.5 -0.072195611894130707 -0.06919388473033905
   vertex -1.5 -0.072195611894130707 0.06919388473033905
  endloop
 endfacet
 facet normal -1 0 0
  outer loop
   vertex -1.5 -0.072195611894130707 0.06919388473033905
   vertex -1.5 -0.072195611894130707 -0.06919388473033905
   vertex -1.5 -0.077803574502468109 0.062821999192237854
  endloop
 endfacet
 facet normal -1 0 0
  outer loop
   vertex -1.5 -0.077803574502468109 0.062821999192237854
   vertex -1.5 -0.072195611894130707 -0.06919388473033905
   vertex -1.5 -0.08285096287727356 0.05599747970700264
  endloop
 endfacet
 facet normal -1 0 0
  outer loop
   vertex -1.5 -0.08285096287727356 0.05599747970700264
   vertex -1.5 -0.072195611894130707 -0.06919388473033905
   vertex -1.5 -0.087301410734653473 0.048769492655992508
  endloop
 endfacet
 facet normal -1 0 0
  outer loop
   vertex -1.5 -0.087301410734653473 0.048769492655992508
   vertex -1.5 -0.072195611894130707 -0.06919388473033905
   vertex -1.5 -0.091122850775718689 0.041190125048160553
  endloop
 endfacet
 facet normal -1 0 0
  outer loop
   vertex -1.5 -0.091122850775718689 0.041190125048160553
   vertex -1.5 -0.072195611894130707 -0.06919388473033905
   vertex -1.5 -0.094287745654582977 0.033313978463411331
  endloop
 endfacet
 facet normal -1 0 0
  outer loop
   vertex -1.5 -0.094287745654582977 0.033313978463411331
   vertex -1.5 -0.072195611894130707 -0.06919388473033905
   vertex -1.5 -0.096773296594619751 0.025197805836796761
  endloop
 endfacet
 facet normal -1 0 0
  outer loop
   vertex -1.5 -0.096773296594619751 0.025197805836796761
   vertex -1.5 -0.072195611894130707 -0.06919388473033905
   vertex -1.5 -0.098561592400074005 0.016900081187486649
  endloop
 endfacet
 facet normal -1 0 0
  outer loop
   vertex -1.5 -0.098561592400074005 0.016900081187486649
   vertex -1.5 -0.072195611894130707 -0.06919388473033905
   vertex -1.5 -0.099639751017093658 0.0084805926308035851
  endloop
 endfacet
 facet normal -1 0 0
  outer loop
   vertex -1.5 -0.099639751017093658 0.0084805926308035851
   vertex -1.5 -0.072195611894130707 -0.06919388473033905
   vertex -1.5 -0.10000000149011612 -1.2246467698671066e-17
  endloop
 endfacet
 facet normal -1 0 0
  outer loop
   vertex -1.5 -0.10000000149011612 -1.2246467698671066e-17
   vertex -1.5 -0.072195611894130707 -0.06919388473033905
   vertex -1.5 -0.099639751017093658 -0.0084805926308035851
  endloop
 endfacet
 facet normal -1 0 0
  outer loop
   vertex -1.5 -0.099639751017093658 -0.0084805926308035851
   vertex -1.5 -0.072195611894130707 -0.06919388473033905
   vertex -1.5 -0.098561592400074005 -0.016900081187486649
  endloop
 endfacet
 facet normal -1 0 0
  outer loop
   vertex -1.5 -0.098561592400074005 -0.016900081187486649
   vertex -1.5 -0.072195611894130707 -0.06919388473033905
   vertex -1.5 -0.096773296594619751 -0.025197805836796761
  endloop
 endfacet
 facet normal -1 0 0
  outer loop
   vertex -1.5 -0.096773296594619751 -0.025197805836796761
   vertex -1.5 -0.072195611894130707 -0.06919388473033905
   vertex -1.5 -0.094287745654582977 -0.033313978463411331
  endloop
 endfacet
 facet normal -1 0 0
  outer loop
   vertex -1.5 -0.094287745654582977 -0.033313978463411331
   vertex -1.5 -0.072195611894130707 -0.06919388473033905
   vertex -1.5 -0.091122850775718689 -0.041190125048160553
  endloop
 endfacet
 facet normal -1 0 0
  outer loop
   vertex -1.5 -0.072195611894130707 -0.06919388473033905
   vertex -1.5 -0.077803574502468109 -0.062821999192237854
   vertex -1.5 -0.091122850775718689 -0.041190125048160553
  endloop
 endfacet
 facet normal -1 0 0
  outer loop
   vertex -1.5 -0.077803574502468109 -0.062821999192237854
   vertex -1.5 -0.08285096287727356 -0.05599747970700264
   vertex -1.5 -0.091122850775718689 -0.041190125048160553
  endloop
 endfacet
 facet normal -1 0 0
  outer loop
   vertex -1.5 -0.087301410734653473 -0.048769492655992508
   vertex -1.5 -0.091122850775718689 -0.041190125048160553
   vertex -1.5 -0.08285096287727356 -0.05599747970700264
  endloop
 endfacet
 facet normal 1 0 0
  outer loop
   vertex 1.5 0.029282277449965477 0.095616675913333893
   vertex 1.5 0.021067926660180092 0.097755521535873413
   vertex 1.5 0.037285648286342621 0.092788904905319214
  endloop
 endfacet
 facet normal 1 0 0
  outer loop
   vertex 1.5 0.037285648286342621 0.092788904905319214
   vertex 1.5 0.021067926660180092 0.097755521535873413
   vertex 1.5 0.045020375400781631 0.089292585849761963
  endloop
 endfacet
 facet normal 1 0 0
  outer loop
   vertex 1.5 0.045020375400781631 0.089292585849761963
   vertex 1.5 0.021067926660180092 0.097755521535873413
   vertex 1.5 0.052430726587772369 0.085152916610240936
  endloop
 endfacet
 facet normal 1 0 0
  outer loop
   vertex 1.5 0.052430726587772369 0.085152916610240936
   vertex 1.5 0.021067926660180092 0.097755521535873413
   vertex 1.5 0.059463318437337875 0.080399714410305023
  endloop
 endfacet
 facet normal 1 0 0
  outer loop
   vertex 1.5 0.059463318437337875 0.080399714410305023
   vertex 1.5 0.021067926660180092 0.097755521535873413
   vertex 1.5 0.066067472100257874 0.075067229568958282
  endloop
 endfacet
 facet normal 1 0 0
  outer loop
   vertex 1.5 0.066067472100257874 0.075067229568958282
   vertex 1.5 0.021067926660180092 0.097755521535873413
   vertex 1.5 0.072195611894130707 0.06919388473033905
  endloop
 endfacet
 facet normal 1 0 0
  outer loop
   vertex 1.5 0.072195611894130707 0.06919388473033905
   vertex 1.5 0.021067926660180092 0.097755521535873413
   vertex 1.5 0.077803574502468109 0.062821999192237854
  endloop
 endfacet
 facet normal 1 0 0
  outer loop
   vertex 1.5 0.077803574502468109 0.062821999192237854
   vertex 1.5 0.021067926660180092 0.097755521535873413
   vertex 1.5 0.08285096287727356 0.05599747970700264
  endloop
 endfacet
 facet normal 1 0 0
  outer loop
   vertex 1.5 0.08285096287727356 0.05599747970700264
   vertex 1.5 0.021067926660180092 0.097755521535873413
   vertex 1.5 0.087301410734653473 0.048769492655992508
  endloop
 endfacet
 facet normal 1 0 0
  outer loop
   vertex 1.5 0.021067926660180092 0.097755521535873413
   vertex 1.5 0.012701782397925854 0.099190041422843933
   vertex 1.5 0.087301410734653473 0.048769492655992508
  endloop
 endfacet
 facet normal 1 0 0
  outer loop
   vertex 1.5 0.012701782397925854 0.099190041422843933
   vertex 1.5 0.0042441203258931637 0.099909894168376923
   vertex 1.5 0.087301410734653473 0.048769492655992508
  endloop
 endfacet
 facet normal 1 -0 0
  outer loop
   vertex 1.5 0.0042441203258931637 0.099909894168376923
   vertex 1.5 -0.0042441203258931637 0.099909894168376923
   vertex 1.5 0.087301410734653473 0.048769492655992508
  endloop
 endfacet
 facet normal 1 -0 0
  outer loop
   vertex 1.5 -0.0042441203258931637 0.099909894168376923
   vertex 1.5 -0.012701782397925854 0.099190041422843933
   vertex 1.5 0.087301410734653473 0.048769492655992508
  endloop
 endfacet
 facet normal 1 -0 0
  outer loop
   vertex 1.5 -0.012701782397925854 0.099190041422843933
   vertex 1.5 -0.021067926660180092 0.097755521535873413
   vertex 1.5 0.087301410734653473 0.048769492655992508
  endloop
 endfacet
 facet normal 1 0 0
  outer loop
   vertex 1.5 0.087301410734653473 0.048769492655992508
   vertex 1.5 -0.021067926660180092 0.097755521535873413
   vertex 1.5 0.091122850775718689 0.041190125048160553
  endloop
 endfacet
 facet normal 1 0 0
  outer loop
   vertex 1.5 0.091122850775718689 0.041190125048160553
   vertex 1.5 -0.021067926660180092 0.097755521535873413
   vertex 1.5 0.094287745654582977 0.033313978463411331
  endloop
 endfacet
 facet normal 1 0 0
  outer loop
   vertex 1.5 0.094287745654582977 0.033313978463411331
   vertex 1.5 -0.021067926660180092 0.097755521535873413
   vertex 1.5 0.096773296594619751 0.025197805836796761
  endloop
 endfacet
 facet normal 1 0 0
  outer loop
   vertex 1.5 0.096773296594619751 0.025197805836796761
   vertex 1.5 -0.021067926660180092 0.097755521535873413
   vertex 1.5 0.098561592400074005 0.016900081187486649
  endloop
 endfacet
 facet normal 1 0 0
  outer loop
   vertex 1.5 0.098561592400074005 0.016900081187486649
   vertex 1.5 -0.021067926660180092 0.097755521535873413
   vertex 1.5 0.099639751017093658 0.0084805926308035851
  endloop
 endfacet
 facet normal 1 0 0
  outer loop
   vertex 1.5 0.099639751017093658 0.0084805926308035851
   vertex 1.5 -0.021067926660180092 0.097755521535873413
   vertex 1.5 0.10000000149011612 0
  endloop
 endfacet
 facet normal 1 0 0
  outer loop
   vertex 1.5 0.10000000149011612 0
   vertex 1.5 -0.021067926660180092 0.097755521535873413
   vertex 1.5 0.099639751017093658 -0.0084805926308035851
  endloop
 endfacet
 facet normal 1 0 0
  outer loop
   vertex 1.5 0.099639751017093658 -0.0084805926308035851
   vertex 1.5 -0.021067926660180092 0.097755521535873413
   vertex 1.5 0.098561592400074005 -0.016900081187486649
  endloop
 endfacet
 facet normal 1 0 0
  outer loop
   vertex 1.5 0.098561592400074005 -0.016900081187486649
   vertex 1.5 -0.021067926660180092 0.097755521535873413
   vertex 1.5 0.096773296594619751 -0.025197805836796761
  endloop
 endfacet
 facet normal 1 0 0
  outer loop
   vertex 1.5 0.096773296594619751 -0.025197805836796761
   vertex 1.5 -0.021067926660180092 0.097755521535873413
   vertex 1.5 0.094287745654582977 -0.033313978463411331
  endloop
 endfacet
 facet normal 1 0 0
  outer loop
   vertex 1.5 0.094287745654582977 -0.033313978463411331
   vertex 1.5 -0.021067926660180092 0.097755521535873413
   vertex 1.5 0.091122850775718689 -0.041190125048160553
  endloop
 endfacet
 facet normal 1 0 0
  outer loop
   vertex 1.5 0.091122850775718689 -0.041190125048160553
   vertex 1.5 -0.021067926660180092 0.097755521535873413
   vertex 1.5 0.087301410734653473 -0.048769492655992508
  endloop
 endfacet
 facet normal 1 0 0
  outer loop
   vertex 1.5 0.087301410734653473 -0.048769492655992508
   vertex 1.5 -0.021067926660180092 0.097755521535873413
   vertex 1.5 0.08285096287727356 -0.05599747970700264
  endloop
 endfacet
 facet normal 1 0 0
  outer loop
   vertex 1.5 0.08285096287727356 -0.05599747970700264
   vertex 1.5 -0.021067926660180092 0.097755521535873413
   vertex 1.5 0.077803574502468109 -0.062821999192237854
  endloop
 endfacet
 facet normal 1 -0 0
  outer loop
   vertex 1.5 -0.021067926660180092 0.097755521535873413
   vertex 1.5 -0.029282277449965477 0.095616675913333893
   vertex 1.5 0.077803574502468109 -0.062821999192237854
  endloop
 endfacet
 facet normal 1 -0 0
  outer loop
   vertex 1.5 -0.029282277449965477 0.095616675913333893
   vertex 1.5 -0.037285648286342621 0.092788904905319214
   vertex 1.5 0.077803574502468109 -0.062821999192237854
  endloop
 endfacet
 facet normal 1 -0 0
  outer loop
   vertex 1.5 -0.037285648286342621 0.092788904905319214
   vertex 1.5 -0.045020375400781631 0.089292585849761963
   vertex 1.5 0.077803574502468109 -0.062821999192237854
  endloop
 endfacet
 facet normal 1 0 0
  outer loop
   vertex 1.5 0.077803574502468109 -0.062821999192237854
   vertex 1.5 -0.045020375400781631 0.089292585849761963
   vertex 1.5 0.072195611894130707 -0.06919388473033905
  endloop
 endfacet
 facet normal 1 0 0
  outer loop
   vertex 1.5 0.072195611894130707 -0.06919388473033905
   vertex 1.5 -0.045020375400781631 0.089292585849761963
   vertex 1.5 0.066067472100257874 -0.075067229568958282
  endloop
 endfacet
 facet normal 1 0 0
  outer loop
   vertex 1.5 0.066067472100257874 -0.075067229568958282
   vertex 1.5 -0.045020375400781631 0.089292585849761963
   vertex 1.5 0.059463318437337875 -0.080399714410305023
  endloop
 endfacet
 facet normal 1 0 0
  outer loop
   vertex 1.5 0.059463318437337875 -0.080399714410305023
   vertex 1.5 -0.045020375400781631 0.089292585849761963
   vertex 1.5 0.052430726587772369 -0.085152916610240936
  endloop
 endfacet
 facet normal 1 0 0
  outer loop
   vertex 1.5 0.052430726587772369 -0.085152916610240936
   vertex 1.5 -0.045020375400781631 0.089292585849761963
   vertex 1.5 0.045020375400781631 -0.089292585849761963
  endloop
 endfacet
 facet normal 1 0 0
  outer loop
   vertex 1.5 0.045020375400781631 -0.089292585849761963
   vertex 1.5 -0.045020375400781631 0.089292585849761963
   vertex 1.5 0.037285648286342621 -0.092788904905319214
  endloop
 endfacet
 facet normal 1 0 0
  outer loop
   vertex 1.5 0.037285648286342621 -0.092788904905319214
   vertex 1.5 -0.045020375400781631 0.089292585849761963
   vertex 1.5 0.029282277449965477 -0.095616675913333893
  endloop
 endfacet
 facet normal 1 0 0
  outer loop
   vertex 1.5 0.029282277449965477 -0.095616675913333893
   vertex 1.5 -0.045020375400781631 0.089292585849761963
   vertex 1.5 0.021067926660180092 -0.097755521535873413
  endloop
 endfacet
 facet normal 1 0 0
  outer loop
   vertex 1.5 0.021067926660180092 -0.097755521535873413
   vertex 1.5 -0.045020375400781631 0.089292585849761963
   vertex 1.5 0.012701782397925854 -0.099190041422843933
  endloop
 endfacet
 facet normal 1 0 0
  outer loop
   vertex 1.5 0.012701782397925854 -0.099190041422843933
   vertex 1.5 -0.045020375400781631 0.089292585849761963
   vertex 1.5 0.0042441203258931637 -0.099909894168376923
  endloop
 endfacet
 facet normal 1 0 0
  outer loop
   vertex 1.5 0.0042441203258931637 -0.099909894168376923
   vertex 1.5 -0.045020375400781631 0.089292585849761963
   vertex 1.5 -0.0042441203258931637 -0.099909894168376923
  endloop
 endfacet
 facet normal 1 0 0
  outer loop
   vertex 1.5 -0.0042441203258931637 -0.099909894168376923
   vertex 1.5 -0.045020375400781631 0.089292585849761963
   vertex 1.5 -0.012701782397925854 -0.099190041422843933
  endloop
 endfacet
 facet normal 1 0 0
  outer loop
   vertex 1.5 -0.012701782397925854 -0.099190041422843933
   vertex 1.5 -0.045020375400781631 0.089292585849761963
   vertex 1.5 -0.021067926660180092 -0.097755521535873413
  endloop
 endfacet
 facet normal 1 0 0
  outer loop
   vertex 1.5 -0.021067926660180092 -0.097755521535873413
   vertex 1.5 -0.045020375400781631 0.089292585849761963
   vertex 1.5 -0.029282277449965477 -0.095616675913333893
  endloop
 endfacet
 facet normal 1 0 0
  outer loop
   vertex 1.5 -0.029282277449965477 -0.095616675913333893
   vertex 1.5 -0.045020375400781631 0.089292585849761963
   vertex 1.5 -0.037285648286342621 -0.092788904905319214
  endloop
 endfacet
 facet normal 1 0 0
  outer loop
   vertex 1.5 -0.037285648286342621 -0.092788904905319214
   vertex 1.5 -0.045020375400781631 0.089292585849761963
   vertex 1.5 -0.045020375400781631 -0.089292585849761963
  endloop
 endfacet
 facet normal 1 0 0
  outer loop
   vertex 1.5 -0.045020375400781631 -0.089292585849761963
   vertex 1.5 -0.045020375400781631 0.089292585849761963
   vertex 1.5 -0.052430726587772369 -0.085152916610240936
  endloop
 endfacet
 facet normal 1 0 0
  outer loop
   vertex 1.5 -0.052430726587772369 -0.085152916610240936
   vertex 1.5 -0.045020375400781631 0.089292585849761963
   vertex 1.5 -0.059463318437337875 -0.080399714410305023
  endloop
 endfacet
 facet normal 1 0 0
  outer loop
   vertex 1.5 -0.059463318437337875 -0.080399714410305023
   vertex 1.5 -0.045020375400781631 0.089292585849761963
   vertex 1.5 -0.066067472100257874 -0.075067229568958282
  endloop
 endfacet
 facet normal 1 0 0
  outer loop
   vertex 1.5 -0.066067472100257874 -0.075067229568958282
   vertex 1.5 -0.045020375400781631 0.089292585849761963
   vertex 1.5 -0.072195611894130707 -0.06919388473033905
  endloop
 endfacet
 facet normal 1 -0 0
  outer loop
   vertex 1.5 -0.045020375400781631 0.089292585849761963
   vertex 1.5 -0.052430726587772369 0.085152916610240936
   vertex 1.5 -0.072195611894130707 -0.06919388473033905
  endloop
 endfacet
 facet normal 1 -0 0
  outer loop
   vertex 1.5 -0.052430726587772369 0.085152916610240936
   vertex 1.5 -0.059463318437337875 0.080399714410305023
   vertex 1.5 -0.072195611894130707 -0.06919388473033905
  endloop
 endfacet
 facet normal 1 -0 0
  outer loop
   vertex 1.5 -0.059463318437337875 0.080399714410305023
   vertex 1.5 -0.066067472100257874 0.075067229568958282
   vertex 1.5 -0.072195611894130707 -0.06919388473033905
  endloop
 endfacet
 facet normal 1 -0 0
  outer loop
   vertex 1.5 -0.066067472100257874 0.075067229568958282
   vertex 1.5 -0.072195611894130707 0.06919388473033905
   vertex 1.5 -0.072195611894130707 -0.06919388473033905
  endloop
 endfacet
 facet normal 1 0 0
  outer loop
   vertex 1.5 -0.072195611894130707 -0.06919388473033905
   vertex 1.5 -0.072195611894130707 0.06919388473033905
   vertex 1.5 -0.077803574502468109 -0.062821999192237854
  endloop
 endfacet
 facet normal 1 0 0
  outer loop
   vertex 1.5 -0.077803574502468109 -0.062821999192237854
   vertex 1.5 -0.072195611894130707 0.06919388473033905
   vertex 1.5 -0.08285096287727356 -0.05599747970700264
  endloop
 endfacet
 facet normal 1 0 0
  outer loop
   vertex 1.5 -0.08285096287727356 -0.05599747970700264
   vertex 1.5 -0.072195611894130707 0.06919388473033905
   vertex 1.5 -0.087301410734653473 -0.048769492655992508
  endloop
 endfacet
 facet normal 1 0 0
  outer loop
   vertex 1.5 -0.087301410734653473 -0.048769492655992508
   vertex 1.5 -0.072195611894130707 0.06919388473033905
   vertex 1.5 -0.091122850775718689 -0.041190125048160553
  endloop
 endfacet
 facet normal 1 0 0
  outer loop
   vertex 1.5 -0.091122850775718689 -0.041190125048160553
   vertex 1.5 -0.072195611894130707 0.06919388473033905
   vertex 1.5 -0.094287745654582977 -0.033313978463411331
  endloop
 endfacet
 facet normal 1 0 0
  outer loop
   vertex 1.5 -0.094287745654582977 -0.033313978463411331
   vertex 1.5 -0.072195611894130707 0.06919388473033905
   vertex 1.5 -0.096773296594619751 -0.025197805836796761
  endloop
 endfacet
 facet normal 1 0 0
  outer loop
   vertex 1.5 -0.096773296594619751 -0.025197805836796761
   vertex 1.5 -0.072195611894130707 0.06919388473033905
   vertex 1.5 -0.098561592400074005 -0.016900081187486649
  endloop
 endfacet
 facet normal 1 0 0
  outer loop
   vertex 1.5 -0.098561592400074005 -0.016900081187486649
   vertex 1.5 -0.072195611894130707 0.06919388473033905
   vertex 1.5 -0.099639751017093658 -0.0084805926308035851
  endloop
 endfacet
 facet normal 1 0 0
  outer loop
   vertex 1.5 -0.099639751017093658 -0.0084805926308035851
   vertex 1.5 -0.072195611894130707 0.06919388473033905
   vertex 1.5 -0.10000000149011612 -1.2246467698671066e-17
  endloop
 endfacet
 facet normal 1 0 0
  outer loop
   vertex 1.5 -0.10000000149011612 -1.2246467698671066e-17
   vertex 1.5 -0.072195611894130707 0.06919388473033905
   vertex 1.5 -0.099639751017093658 0.0084805926308035851
  endloop
 endfacet
 facet normal 1 0 0
  outer loop
   vertex 1.5 -0.099639751017093658 0.0084805926308035851
   vertex 1.5 -0.072195611894130707 0.06919388473033905
   vertex 1.5 -0.098561592400074005 0.016900081187486649
  endloop
 endfacet
 facet normal 1 0 0
  outer loop
   vertex 1.5 -0.098561592400074005 0.016900081187486649
   vertex 1.5 -0.072195611894130707 0.06919388473033905
   vertex 1.5 -0.096773296594619751 0.025197805836796761
  endloop
 endfacet
 facet normal 1 0 0
  outer loop
   vertex 1.5 -0.096773296594619751 0.025197805836796761
   vertex 1.5 -0.072195611894130707 0.06919388473033905
   vertex 1.5 -0.094287745654582977 0.033313978463411331
  endloop
 endfacet
 facet normal 1 0 0
  outer loop
   vertex 1.5 -0.094287745654582977 0.033313978463411331
   vertex 1.5 -0.072195611894130707 0.06919388473033905
   vertex 1.5 -0.091122850775718689 0.041190125048160553
  endloop
 endfacet
 facet normal 1 -0 0
  outer loop
   vertex 1.5 -0.072195611894130707 0.06919388473033905
   vertex 1.5 -0.077803574502468109 0.062821999192237854
   vertex 1.5 -0.091122850775718689 0.041190125048160553
  endloop
 endfacet
 facet normal 1 -0 0
  outer loop
   vertex 1.5 -0.077803574502468109 0.062821999192237854
   vertex 1.5 -0.08285096287727356 0.05599747970700264
   vertex 1.5 -0.091122850775718689 0.041190125048160553
  endloop
 endfacet
 facet normal 1 0 0
  outer loop
   vertex 1.5 -0.087301410734653473 0.048769492655992508
   vertex 1.5 -0.091122850775718689 0.041190125048160553
   vertex 1.5 -0.08285096287727356 0.05599747970700264
  endloop
 endfacet
endsolid
