solid Visualization Toolkit generated SLA File
 facet normal -1 0 0
  outer loop
   vertex -1.25 -0.02500000037252903 -0.30000001192092896
   vertex -1.25 -0.02500000037252903 -0.10000000149011612
   vertex -1.25 0.02500000037252903 -0.30000001192092896
  endloop
 endfacet
 facet normal -1 -0 -0
  outer loop
   vertex -1.25 -0.02500000037252903 -0.10000000149011612
   vertex -1.25 0.02500000037252903 -0.10000000149011612
   vertex -1.25 0.02500000037252903 -0.30000001192092896
  endloop
 endfacet
 facet normal 1 0 0
  outer loop
   vertex -1.1499999761581421 -0.02500000037252903 -0.30000001192092896
   vertex -1.1499999761581421 0.02500000037252903 -0.30000001192092896
   vertex -1.1499999761581421 -0.02500000037252903 -0.10000000149011612
  endloop
 endfacet
 facet normal 1 0 0
  outer loop
   vertex -1.1499999761581421 0.02500000037252903 -0.30000001192092896
   vertex -1.1499999761581421 0.02500000037252903 -0.10000000149011612
   vertex -1.1499999761581421 -0.02500000037252903 -0.10000000149011612
  endloop
 endfacet
 facet normal 0 -1 0
  outer loop
   vertex -1.25 -0.02500000037252903 -0.30000001192092896
   vertex -1.1499999761581421 -0.02500000037252903 -0.30000001192092896
   vertex -1.25 -0.02500000037252903 -0.10000000149011612
  endloop
 endfacet
 facet normal -0 -1 -0
  outer loop
   vertex -1.1499999761581421 -0.02500000037252903 -0.30000001192092896
   vertex -1.1499999761581421 -0.02500000037252903 -0.10000000149011612
   vertex -1.25 -0.02500000037252903 -0.10000000149011612
  endloop
 endfacet
 facet normal 0 1 0
  outer loop
   vertex -1.25 0.02500000037252903 -0.30000001192092896
   vertex -1.25 0.02500000037252903 -0.10000000149011612
   vertex -1.1499999761581421 0.02500000037252903 -0.30000001192092896
  endloop
 endfacet
 facet normal 0 1 0
  outer loop
   vertex -1.25 0.02500000037252903 -0.10000000149011612
   vertex -1.1499999761581421 0.02500000037252903 -0.10000000149011612
   vertex -1.1499999761581421 0.02500000037252903 -0.30000001192092896
  endloop
 endfacet
 facet normal 0 0 -1
  outer loop
   vertex -1.25 -0.02500000037252903 -0.30000001192092896
   vertex -1.25 0.02500000037252903 -0.30000001192092896
   vertex -1.1499999761581421 -0.02500000037252903 -0.30000001192092896
  endloop
 endfacet
 facet normal -0 -0 -1
  outer loop
   vertex -1.25 0.02500000037252903 -0.30000001192092896
   vertex -1.1499999761581421 0.02500000037252903 -0.30000001192092896
   vertex -1.1499999761581421 -0.02500000037252903 -0.30000001192092896
  endloop
 endfacet
 facet normal 0 0 1
  outer loop
   vertex -1.25 -0.02500000037252903 -0.10000000149011612
   vertex -1.1499999761581421 -0.02500000037252903 -0.10000000149011612
   vertex -1.25 0.02500000037252903 -0.10000000149011612
  endloop
 endfacet
 facet normal 0 0 1
  outer loop
   vertex -1.1499999761581421 -0.02500000037252903 -0.10000000149011612
   vertex -1.1499999761581421 0.02500000037252903 -0.10000000149011612
   vertex -1.25 0.02500000037252903 -0.10000000149011612
  endloop
 endfacet
endsolid
